<?xml version="1.0" encoding="UTF-8"?>
<svg width="254px" height="60px" viewBox="0 0 254 60" version="1.1" xmlns="http://www.w3.org/2000/svg" xmlns:xlink="http://www.w3.org/1999/xlink">
    <!-- Generator: Sketch 59 (86127) - https://sketch.com -->
    <title>Group 2@2x</title>
    <desc>Created with Sketch.</desc>
    <g id="Page-1" stroke="none" stroke-width="1" fill="none" fill-rule="evenodd">
        <g id="paper" transform="translate(-80.000000, -20.000000)">
            <g id="Group-2" transform="translate(80.000000, 20.000000)">
                <text id="Scholar-Net" font-family="NexaBold, Nexa Bold" font-size="32" font-weight="bold" fill="#000000">
                    <tspan x="80" y="41">Scholar Net</tspan>
                </text>
                <g id="Rectangle" fill="#B70016">
                    <path d="M31.5734366,17.5484789 C30.7748451,17.4217183 30.2289296,16.6721408 30.3556901,15.8735493 C30.4816056,15.0766479 31.2320282,14.5307324 32.0306197,14.657493 C32.8292113,14.7842535 33.3734366,15.533831 33.2466761,16.3324225 C33.1325915,17.0532676 32.5106197,17.5670704 31.8032958,17.5670704 C31.7272394,17.5670704 31.649493,17.5603099 31.5734366,17.5484789 M25.0283662,16.6493239 C24.8416056,15.8625634 25.3266761,15.0749577 26.1117465,14.885662 C26.897662,14.6972113 27.6878028,15.1822817 27.8745634,15.9681972 C28.0638592,16.7532676 27.5779437,17.5434085 26.7937183,17.7318592 C26.6779437,17.7597465 26.5638592,17.7724225 26.4506197,17.7724225 C25.7889296,17.7724225 25.1897746,17.3211549 25.0283662,16.6493239 M36.0599155,19.2014366 C35.370338,18.7805915 35.154,17.8780563 35.5765352,17.190169 C35.9990704,16.5005915 36.8999155,16.2834085 37.589493,16.7050986 C38.2773803,17.1276338 38.4954085,18.0284789 38.0728732,18.7180563 C37.7973803,19.1684789 37.3156901,19.4177746 36.8238592,19.4177746 C36.5627324,19.4177746 36.2990704,19.3467887 36.0599155,19.2014366 M20.4083662,19.4127042 C19.9342817,18.7594648 20.0787887,17.8425634 20.7320282,17.3684789 C21.3852676,16.8935493 22.302169,17.0380563 22.7762535,17.6921408 C23.2511831,18.3453803 23.105831,19.2614366 22.4525915,19.7363662 C22.1923099,19.925662 21.8914648,20.0152394 21.5931549,20.0152394 C21.1410423,20.0152394 20.694,19.8073521 20.4083662,19.4127042 M39.5745634,22.4600282 C39.569493,22.4524225 39.5661127,22.445662 39.5610423,22.4372113 C39.0945634,21.7839718 39.2424507,20.8780563 39.894,20.406507 C40.5463944,19.9307324 41.4616056,20.0760845 41.9356901,20.7310141 L41.9382254,20.7310141 C41.9399155,20.7343944 41.9432958,20.7377746 41.9466761,20.7411549 C42.4190704,21.3960845 42.2737183,22.3104507 41.6187887,22.7853803 C41.3610423,22.973831 41.0593521,23.0642535 40.7618873,23.0642535 C40.3089296,23.0642535 39.8627324,22.8546761 39.5745634,22.4600282 M17.189493,23.7276338 C16.5007606,23.3050986 16.2835775,22.4042535 16.7069577,21.7146761 C17.129493,21.0250986 18.030338,20.8087606 18.7199155,21.2312958 C19.4086479,21.653831 19.6249859,22.5546761 19.2024507,23.2442535 C18.9278028,23.6946761 18.4461127,23.9439718 17.9534366,23.9422902 C17.6923099,23.9422902 17.4286479,23.8729859 17.189493,23.7276338 M41.5773803,26.8028451 C41.3889296,26.0160845 41.8731549,25.2259437 42.6599155,25.0391831 C43.4466761,24.8515775 44.2368169,25.3366479 44.4235775,26.1234085 L44.4235775,26.1217183 C44.610338,26.9084789 44.1261127,27.6977746 43.3410423,27.8853803 C43.2269577,27.9132676 43.1120282,27.9267887 42.9996338,27.9267887 C42.3379437,27.9250986 41.7370986,27.4729859 41.5773803,26.8028451 M15.8754085,28.9467887 C15.0768169,28.8208732 14.5309014,28.0704507 14.658507,27.2718592 C14.7852676,26.4749577 15.5356901,25.9290423 16.3325915,26.057493 C17.1311831,26.1842535 17.6745634,26.933831 17.5486479,27.7307324 C17.4345634,28.4515775 16.8125915,28.9662254 16.1052676,28.9662254 C16.0292113,28.9662254 15.9514648,28.9594648 15.8754085,28.9467887 M42.9717465,33.2566479 C42.1731549,33.1290423 41.6289296,32.3786197 41.7556901,31.5800282 L41.7556901,31.5817183 C41.8841408,30.7831268 42.6337183,30.2397465 43.4331549,30.365662 C44.2317465,30.4941127 44.7751268,31.2445352 44.6475211,32.0405915 L44.6475211,32.0422817 C44.5325915,32.7614366 43.9106197,33.2760845 43.2041408,33.2743985 C43.1280845,33.2743985 43.050338,33.2693239 42.9717465,33.2566479 M14.885831,33.1915775 C14.6973803,32.4048169 15.1824507,31.6163662 15.9683662,31.4279155 C16.7534366,31.2411549 17.5427324,31.7253803 17.7320282,32.5104507 C17.9187887,33.2972113 17.4345634,34.086507 16.649493,34.2758028 C16.5354085,34.302 16.4204789,34.3155211 16.3080845,34.3155211 C15.6463944,34.3155211 15.0455493,33.8634085 14.885831,33.1915775 M40.5835775,38.0811549 C39.894,37.6586197 39.678507,36.7577746 40.1010423,36.0690423 C40.5244225,35.3794648 41.4252676,35.1622817 42.1148451,35.585662 C42.8018873,36.0081972 43.0182254,36.9090423 42.5956901,37.5986197 C42.3210423,38.0490423 41.838507,38.2966479 41.3466761,38.2966479 C41.0872394,38.2966479 40.8218873,38.2273521 40.5835775,38.0811549 M17.3661127,38.5712958 C16.8920282,37.9172113 17.0373803,37.0028451 17.6906197,36.5279155 C18.3455493,36.0529859 19.2599155,36.198338 19.7348451,36.8515775 C20.2089296,37.506507 20.0635775,38.4234085 19.4086479,38.897493 C19.1492113,39.0842535 18.8492113,39.1763662 18.5517465,39.1763662 C18.0979437,39.1763662 17.6525915,38.9667887 17.3661127,38.5712958 M36.5238592,41.6186197 C36.0497746,40.9636901 36.1968169,40.0493239 36.8500563,39.5743944 C37.5049859,39.1003099 38.4193521,39.245662 38.8942817,39.9005915 C39.3692113,40.553831 39.2230141,41.4681972 38.5680845,41.9448169 C38.3086479,42.1315775 38.0086479,42.222 37.7111831,42.222 C37.2590704,42.222 36.8120282,42.0124225 36.5238592,41.6186197 M21.7114648,42.5980563 L21.7114648,42.5980563 C21.0235775,42.1755211 20.8072394,41.2746761 21.2280845,40.5850986 C21.6506197,39.8972113 22.5531549,39.6800282 23.2427324,40.1025634 L23.2410423,40.1025634 C23.9306197,40.5242535 24.1469577,41.4250986 23.7235775,42.1146761 C23.4489296,42.5650986 22.9672394,42.8143944 22.4754085,42.8143944 C22.2134366,42.8143944 21.9506197,42.7450986 21.7114648,42.5980563 M31.4247042,43.3391831 C31.2370986,42.5524225 31.722169,41.7648169 32.5089296,41.5755211 C33.294,41.3887606 34.0832958,41.873831 34.2725915,42.6597465 C34.4593521,43.4448169 33.9742817,44.2349577 33.1875211,44.4234085 C33.0734366,44.4496056 32.9593521,44.4639718 32.8478028,44.4639718 C32.1844225,44.4639718 31.5852676,44.0110141 31.4247042,43.3391831 M27.2686479,44.6490423 L27.2686479,44.6490423 C26.4717465,44.5205915 25.925831,43.770169 26.0542817,42.9715775 C26.1810423,42.1755211 26.9306197,41.6312958 27.7292113,41.7572113 C28.5261127,41.8839718 29.0720282,42.6343944 28.9435775,43.4329859 C28.829493,44.1529859 28.2075211,44.6659437 27.5001972,44.6659437 C27.4241408,44.6659437 27.3463944,44.6608732 27.2686479,44.6490423" id="Fill-1"></path>
                    <path d="M27.3794366,12.552338 C27.3532394,11.5424789 28.151831,10.7024789 29.1616901,10.6762817 C30.1723944,10.6509296 31.0098592,11.4486761 31.0385915,12.4593803 C31.0622535,13.4683944 30.2653521,14.3092394 29.255493,14.3345915 L29.2073239,14.3345915 C28.2194366,14.3345915 27.4056338,13.5469859 27.3794366,12.552338 M35.1456338,15.3520563 C34.2033803,14.9895211 33.731831,13.931493 34.0935211,12.9892394 C34.4560563,12.0444507 35.5140845,11.5754366 36.456338,11.9371268 L36.456338,11.9362817 C37.4002817,12.2979718 37.871831,13.356 37.5101408,14.2999437 C37.2312676,15.0275493 36.5357746,15.4745915 35.8022535,15.4745915 C35.5833803,15.4745915 35.3619718,15.4348732 35.1456338,15.3520563 M21.0109859,14.7283944 C20.6011268,13.8064225 21.0152113,12.7255775 21.9397183,12.3131831 C22.8616901,11.9024789 23.9425352,12.3190986 24.3549296,13.2419155 C24.7656338,14.1655775 24.3498592,15.2464225 23.4261972,15.6571268 C23.1853521,15.7644507 22.9326761,15.8143099 22.6825352,15.8143099 C21.9828169,15.8143099 21.3143662,15.4103662 21.0109859,14.7283944 M40.2033803,18.5388169 C39.4707042,17.8450141 39.4394366,16.6855775 40.1340845,15.9529014 C40.8304225,15.2202254 41.988169,15.1889577 42.7225352,15.8836056 C43.4552113,16.5799437 43.4847887,17.7376901 42.7901408,18.4695211 C42.4301408,18.8498028 41.9467606,19.0416338 41.4633803,19.0416338 C41.0104225,19.0416338 40.5566197,18.8751549 40.2033803,18.5388169 M15.9566197,19.1683944 C15.2222535,18.4737465 15.1926761,17.3143099 15.8873239,16.5816338 C16.583662,15.8489577 17.7405634,15.8193803 18.4732394,16.5140282 C19.2067606,17.2103662 19.2371831,18.3681127 18.5425352,19.1007887 C18.1825352,19.4802254 17.6991549,19.6703662 17.2140845,19.6703662 C16.7619718,19.6703662 16.3098592,19.5047324 15.9566197,19.1683944 M43.656338,23.4385352 L43.656338,23.4368451 C43.6546479,23.4317746 43.6512676,23.4283944 43.6495775,23.4224789 C43.2388732,22.499662 43.6529577,21.4188169 44.5757746,21.0081127 C45.4994366,20.5974085 46.5802817,21.011493 46.9909859,21.9351549 C46.9943662,21.9419155 46.9960563,21.9469859 46.9994366,21.9537465 L46.9994366,21.9520563 C47.4101408,22.8757183 46.9943662,23.9565634 46.0690141,24.3664225 C45.8290141,24.4737465 45.5771831,24.5244507 45.3295775,24.5244507 C44.628169,24.5244507 43.9597183,24.119662 43.656338,23.4385352 M12.9887324,25.2089577 C12.0464789,24.8464225 11.5749296,23.7883944 11.9374648,22.8444507 L11.9374648,22.8461408 C12.3016901,21.9013521 13.3597183,21.4306479 14.3019718,21.7948732 C15.2442254,22.1565634 15.7157746,23.2145915 15.3540845,24.1568451 C15.0726761,24.8844507 14.3805634,25.332338 13.6453521,25.332338 C13.4273239,25.332338 13.2059155,25.2917746 12.9887324,25.2089577 M44.9729577,29.267831 C44.9484507,28.2562817 45.7470423,27.4171268 46.7569014,27.3934648 C47.7667606,27.3689577 48.6050704,28.1658592 48.6312676,29.1774085 C48.6557746,30.1872676 47.8571831,31.0255775 46.8473239,31.0500845 C46.8321127,31.0517746 46.8160563,31.0517746 46.8016901,31.0517746 C45.8112676,31.0517746 44.9966197,30.2624789 44.9729577,29.267831 M10.6766197,30.1407887 C10.6504225,29.1309296 11.4490141,28.2909296 12.4588732,28.2664225 C13.4687324,28.2402254 14.3087324,29.0371268 14.3332394,30.0486761 C14.3594366,31.0585352 13.5625352,31.8976901 12.5526761,31.9230423 L12.5053521,31.9230423 C11.5166197,31.9230423 10.7028169,31.1354366 10.6766197,30.1407887 M45.0008451,37.5216338 C44.0577465,37.1582535 43.5870423,36.1002254 43.9504225,35.1579718 C44.3129577,34.2131831 45.3726761,33.744169 46.3149296,34.1075493 C47.2571831,34.4700845 47.7270423,35.5281127 47.3653521,36.4720563 C47.0847887,37.1979718 46.3935211,37.6433239 45.6583099,37.6433239 C45.4385915,37.6433239 45.2171831,37.6052958 45.0008451,37.5216338 M12.311831,37.3644507 L12.311831,37.3644507 C11.9011268,36.4416338 12.3169014,35.3582535 13.2405634,34.9492394 C14.1633803,34.5393803 15.2442254,34.9551549 15.6549296,35.8762817 C16.0656338,36.7999437 15.6498592,37.8807887 14.7261972,38.2931831 C14.4853521,38.400507 14.2326761,38.4503662 13.9850704,38.4503662 C13.283662,38.4503662 12.6143662,38.0455775 12.311831,37.3644507 M40.8261972,42.7990986 C40.0943662,42.1044507 40.0630986,40.9450141 40.7594366,40.212338 C41.4566197,39.479662 42.6135211,39.4500845 43.3461972,40.1464225 C44.0788732,40.8410704 44.1084507,42.000507 43.4121127,42.7331831 C43.0529577,43.1109296 42.5704225,43.3010704 42.084507,43.3010704 C41.6332394,43.3010704 41.1811268,43.1345915 40.8261972,42.7990986 M16.5785915,43.4151549 C15.8459155,42.720507 15.816338,41.5619155 16.5126761,40.8292394 C17.2073239,40.0965634 18.3642254,40.0669859 19.0969014,40.7633239 C19.8295775,41.4579718 19.8591549,42.6165634 19.164507,43.3492394 C18.804507,43.727831 18.3211268,43.9179718 17.8377465,43.9179718 C17.3856338,43.9179718 16.931831,43.751493 16.5785915,43.4151549 M34.944507,46.0695211 C34.5338028,45.1458592 34.9495775,44.0650141 35.8723944,43.6543099 C36.7985915,43.2436056 37.8769014,43.6619155 38.2876056,44.5830423 C38.6983099,45.5067042 38.2825352,46.5875493 37.3597183,46.9982535 C37.1180282,47.1055775 36.8653521,47.1554366 36.6177465,47.1554366 C35.916338,47.1554366 35.2478873,46.7498028 34.944507,46.0695211 M22.8405634,47.3667042 C21.8983099,47.0050141 21.4276056,45.9461408 21.7892958,45.0021972 C22.1526761,44.0599437 23.2115493,43.5909296 24.1538028,43.9526197 C25.0960563,44.3143099 25.5676056,45.3731831 25.2050704,46.3171268 C24.924507,47.0430423 24.2315493,47.4900845 23.4971831,47.4900845 C23.2791549,47.4900845 23.0552113,47.4495211 22.8405634,47.3667042 M28.2608451,46.8469859 C28.235493,45.8371268 29.0340845,44.9988169 30.0439437,44.9726197 L30.0456338,44.9726197 C31.0538028,44.9481127 31.8938028,45.7450141 31.9183099,46.7557183 C31.943662,47.7647324 31.1459155,48.6055775 30.1352113,48.6309296 L30.0887324,48.6309296 C29.1,48.6309296 28.2853521,47.8416338 28.2608451,46.8469859" id="Fill-3"></path>
                    <path d="M33.149662,10.8200282 L33.149662,10.8200282 C31.9074085,10.5876338 31.0885352,9.39439437 31.3200845,8.15383099 C31.5507887,6.91157746 32.7448732,6.09270423 33.9862817,6.32509859 L33.9862817,6.32256338 C35.2285352,6.55495775 36.0457183,7.74904225 35.8158592,8.98876056 C35.6113521,10.0907324 34.649662,10.8580563 33.570507,10.8580563 C33.4319155,10.8580563 33.2899437,10.8462254 33.149662,10.8200282 M22.9690986,9.15861972 C22.7054366,7.92397183 23.4938873,6.70960563 24.7285352,6.4476338 C25.9640282,6.1848169 27.1783944,6.97242254 27.4420563,8.20791549 C27.7048732,9.44340845 26.9155775,10.6577746 25.6800845,10.9205915 C25.5203662,10.9552394 25.361493,10.9704507 25.2034648,10.9704507 C24.1471268,10.9704507 23.1972676,10.2343944 22.9690986,9.15861972 M40.086,13.5952394 L40.086,13.5952394 C39.0271268,12.9073521 38.7262817,11.490169 39.414169,10.4321408 C40.1012113,9.37157746 41.5183944,9.07242254 42.5772676,9.76030986 C43.6369859,10.4481972 43.9369859,11.8628451 43.2490986,12.9234085 C42.8113521,13.5969296 42.077831,13.9645352 41.3299437,13.9645352 C40.901493,13.9645352 40.470507,13.8445352 40.086,13.5952394 M15.6321972,13.2715775 C14.9172676,12.2304507 15.1800845,10.8081972 16.2212113,10.0924225 C17.262338,9.37664789 18.6862817,9.64030986 19.4020563,10.6814366 C20.1161408,11.7225634 19.8524789,13.146507 18.8113521,13.8622817 C18.4158592,14.1335493 17.9662817,14.2636901 17.5192394,14.2636901 C16.7916338,14.2636901 16.0758592,13.9180563 15.6321972,13.2715775 M45.4420563,18.8059437 L45.4420563,18.8059437 C44.7254366,17.7648169 44.9882535,16.3408732 46.0293803,15.6259437 C47.070507,14.910169 48.4944507,15.1729859 49.2102254,16.2141127 C49.9251549,17.2535493 49.662338,18.677493 48.6212113,19.3932676 C48.2257183,19.6670704 47.7736056,19.7972113 47.3265634,19.7972113 C46.5998028,19.7972113 45.8857183,19.4507324 45.4420563,18.8059437 M10.4358592,19.8850986 C9.37529577,19.1980563 9.07614085,17.7808732 9.76487324,16.722 C10.4527606,15.6639718 11.8699437,15.3622817 12.9288169,16.0518592 C13.9868451,16.7397465 14.2868451,18.1569296 13.5989577,19.2149577 C13.1603662,19.8884789 12.4276901,20.2560845 11.6798028,20.2560845 C11.2513521,20.2560845 10.8203662,20.1360845 10.4358592,19.8850986 M48.390507,25.7008732 L48.390507,25.7008732 C48.3888169,25.6924225 48.3871268,25.6814366 48.3854366,25.6729859 C48.1217746,24.437493 48.9119155,23.2231268 50.1457183,22.9603099 C51.3820563,22.6966479 52.5964225,23.4867887 52.8583944,24.7222817 C52.8583944,24.7239718 52.8583944,24.7239718 52.8600845,24.725662 C52.8617746,24.7358028 52.8634648,24.7476338 52.8668451,24.7586197 C53.1271268,25.9932676 52.3369859,27.2059437 51.0998028,27.4679155 C50.9409296,27.5000282 50.7829014,27.5160845 50.6274085,27.5160845 C49.5685352,27.5160845 48.617831,26.778338 48.390507,25.7008732 M8.15416901,27.9791831 C6.91191549,27.7484789 6.09473239,26.5527042 6.32459155,25.3121408 C6.55698592,24.0707324 7.75022535,23.2510141 8.99247887,23.4834085 C10.2347324,23.7158028 11.0527606,24.9090423 10.8220563,26.1512958 C10.6158592,27.2507324 9.65416901,28.0189014 8.57501408,28.0189014 C8.43642254,28.0189014 8.29614085,28.0062254 8.15416901,27.9791831 M50.310507,35.8400282 C49.0674085,35.6076338 48.2502254,34.4127042 48.4843099,33.1704507 L48.4826197,33.1704507 C48.7158592,31.9298873 49.9099437,31.1127042 51.1521972,31.3450986 C52.3927606,31.5766479 53.2116338,32.7724225 52.9792394,34.0121408 L52.9775493,34.0121408 C52.7713521,35.1124225 51.8121972,35.8797465 50.7330423,35.8797465 C50.5944507,35.8797465 50.4524789,35.8662254 50.310507,35.8400282 M6.44374648,34.5690423 C6.18261972,33.3335493 6.97276056,32.1191831 8.20740845,31.8572113 C9.44290141,31.5952394 10.6572676,32.3836901 10.9183944,33.6191831 C11.1803662,34.853831 10.3919155,36.0681972 9.15726761,36.330169 C8.99585915,36.3648169 8.83614085,36.3808732 8.68064789,36.3808732 C7.62177465,36.3808732 6.67276056,35.6439718 6.44374648,34.5690423 M46.3690986,43.2681972 C45.3110704,42.5803099 45.0110704,41.1631268 45.7006479,40.1050986 C46.3893803,39.0462254 47.8048732,38.7470704 48.8654366,39.4358028 C49.9217746,40.1253803 50.2217746,41.5425634 49.5321972,42.6014366 C49.0936056,43.2732676 48.3609296,43.638338 47.6147324,43.638338 C47.1862817,43.638338 46.7536056,43.5191831 46.3690986,43.2681972 M10.0868451,43.0772113 C9.37191549,42.0360845 9.63726761,40.6121408 10.6783944,39.8989014 C11.7195211,39.1831268 13.1434648,39.4484789 13.8567042,40.4896056 C14.5724789,41.5307324 14.3071268,42.9529859 13.266,43.6679155 C12.8713521,43.9400282 12.4209296,44.070169 11.9738873,44.070169 C11.2462817,44.070169 10.530507,43.7236901 10.0868451,43.0772113 M39.8916338,48.6335493 C39.1767042,47.5924225 39.4412113,46.1684789 40.482338,45.4543944 C41.5234648,44.7403099 42.9474085,45.005662 43.661493,46.0467887 C44.3772676,47.0879155 44.1119155,48.5118592 43.0707887,49.2250986 C42.6744507,49.4980563 42.2231831,49.6273521 41.7786761,49.6273521 C41.0510704,49.6273521 40.3336056,49.2791831 39.8916338,48.6335493 M16.7155775,49.5369296 L16.7130423,49.5369296 C15.6550141,48.8481972 15.3567042,47.4310141 16.0445915,46.373831 C16.734169,45.3141127 18.149662,45.0158028 19.2076901,45.7036901 C20.2665634,46.3932676 20.5657183,47.8087606 19.877831,48.8684789 C19.4400845,49.5411549 18.7074085,49.9079155 17.9586761,49.9079155 C17.5310704,49.9079155 17.1000845,49.7887606 16.7155775,49.5369296 M31.8482535,51.1003099 C31.5871268,49.8631268 32.3789577,48.6504507 33.6136056,48.390169 C34.8490986,48.1290423 36.0617746,48.918338 36.3229014,50.1555211 C36.5831831,51.3910141 35.7930423,52.6036901 34.5583944,52.8648169 C34.3986761,52.8977746 34.241493,52.913831 34.0834648,52.913831 C33.0254366,52.913831 32.0755775,52.1760845 31.8482535,51.1003099 M25.3040282,52.9814366 C24.0617746,52.7473521 23.2445915,51.5541127 23.4744507,50.3118592 C23.7068451,49.0712958 24.9017746,48.2515775 26.142338,48.4839718 C27.3845915,48.7163662 28.2026197,49.9112958 27.9719155,51.1518592 C27.7657183,52.2521408 26.8040282,53.0194648 25.7248732,53.0194648 C25.5862817,53.0194648 25.4443099,53.0067887 25.3040282,52.9814366" id="Fill-5"></path>
                    <path d="M29.6678873,5.71664789 C28.0876056,5.71495775 26.8098592,4.43467606 26.8115476,2.85692958 C26.8115476,1.27664789 28.0909859,-0.00194366197 29.6712676,-0.000255194815 C31.2498592,-0.000255194815 32.5276056,1.28002817 32.5276056,2.86030986 C32.5259155,4.43805634 31.2456338,5.71664789 29.6678873,5.71664789 L29.6678873,5.71664789 Z M16.7738028,5.97692958 C16.1695775,4.51833803 16.8625352,2.84678873 18.3211268,2.24340845 C19.7797183,1.63833803 21.4512676,2.33214085 22.056338,3.79073239 C22.6588732,5.24932394 21.9659155,6.92087324 20.5073239,7.52509859 C20.1507042,7.67214085 19.7797183,7.74312676 19.415493,7.74312676 C18.2932394,7.74312676 17.2276056,7.07805634 16.7738028,5.97692958 L16.7738028,5.97692958 Z M38.8242254,7.53523944 C37.3656338,6.92932394 36.6752113,5.25777465 37.2794366,3.7991831 C37.8861972,2.34228169 39.5577465,1.64932394 41.016338,2.25523944 C42.4749296,2.86030986 43.164507,4.5335493 42.5594366,5.9904507 C42.1039437,7.08988732 41.0408451,7.75411268 39.9177465,7.75411268 C39.5543662,7.75411268 39.1833803,7.6848169 38.8242254,7.53523944 L38.8242254,7.53523944 Z M8.7,12.7096056 C7.58450704,11.5932676 7.58450704,9.78397183 8.70169014,8.66847887 C9.81887324,7.55298592 11.6290141,7.55467606 12.744507,8.67185915 C13.86,9.78735211 13.8583099,11.597493 12.7411268,12.713831 C12.1833803,13.2715775 11.4523944,13.5487606 10.7214085,13.5487606 C9.98873239,13.5487606 9.25774648,13.2698873 8.7,12.7096056 L8.7,12.7096056 Z M46.583662,12.7324225 C45.468169,11.6152394 45.468169,9.80509859 46.5861972,8.68960563 C47.7008451,7.57411268 49.5109859,7.57411268 50.6273239,8.69129577 C51.7428169,9.80678873 51.7428169,11.6169296 50.6273239,12.7324225 C50.0695775,13.290169 49.3360563,13.5690423 48.6050704,13.5690423 C47.8740845,13.5690423 47.1414085,13.290169 46.583662,12.7324225 L46.583662,12.7324225 Z M3.80450704,22.0129859 C2.34507042,21.4062254 1.65633803,19.7346761 2.26056338,18.2760845 L2.26225352,18.2760845 C2.86732394,16.8191831 4.54056338,16.1279155 5.99915493,16.7346761 C7.45605634,17.3405915 8.1456338,19.013831 7.54056338,20.4707324 C7.08338028,21.5693239 6.02028169,22.2327042 4.89887324,22.2327042 C4.53380282,22.2327042 4.1628169,22.1617183 3.80450704,22.0129859 L3.80450704,22.0129859 Z M51.7774648,20.4952394 C51.1723944,19.0366479 51.8653521,17.3650986 53.3239437,16.7600282 C54.7808451,16.1558028 56.4549296,16.8487606 57.0574648,18.3073521 L57.0574648,18.305662 C57.6633803,19.7642535 56.9712676,21.4358028 55.5126761,22.0400282 C55.1535211,22.1896056 54.7825352,22.2605915 54.4191549,22.2605915 C53.2985915,22.2605915 52.2329577,21.5955211 51.7774648,20.4952394 L51.7774648,20.4952394 Z M2.85464789,32.4825634 C1.27690141,32.4808732 -0.00169014085,31.1989014 -1.67368904e-06,29.6211549 C0.00169014085,28.0408732 1.28197183,26.7639718 2.86225352,26.7665033 C4.44,26.7681972 5.71859155,28.0476338 5.71690308,29.6262254 C5.71521127,31.2048169 4.43492958,32.4825634 2.85802817,32.4825634 L2.85464789,32.4825634 Z M56.4422535,32.5729859 C54.864507,32.5696056 53.5876056,31.2859437 53.5909792,29.7073521 L53.5909792,29.6853803 L53.5909792,29.6541127 C53.5909792,28.0755211 54.8712676,26.7952394 56.4490141,26.7952394 C58.0276056,26.7952394 59.3078873,28.0755211 59.3078873,29.6541127 L59.3078873,29.705662 L59.3078873,29.7200282 C59.304507,31.2960845 58.0259155,32.5729859 56.4490141,32.5729859 L56.4422535,32.5729859 Z M2.23690141,40.9712958 C1.63352113,39.5127042 2.32816901,37.8411549 3.78676056,37.2377746 C5.24535211,36.6352394 6.91774648,37.3298873 7.52028169,38.7884789 C8.1228169,40.2470704 7.42816901,41.9186197 5.96957746,42.5211549 C5.61295775,42.6690423 5.24197183,42.738338 4.87859155,42.738338 C3.75549296,42.738338 2.69239437,42.0724225 2.23690141,40.9712958 L2.23690141,40.9712958 Z M53.2943662,42.5997465 C51.8374648,41.9912958 51.1487324,40.3180563 51.7580282,38.8611549 C52.3647887,37.4042535 54.0380282,36.7146761 55.4966197,37.3222817 C56.951831,37.9307324 57.6414085,39.6039718 57.0329577,41.0625634 L57.0329577,41.0608732 C56.5757746,42.1594648 55.5126761,42.8211549 54.3929577,42.8211549 C54.0278873,42.8211549 53.6552113,42.750169 53.2943662,42.5997465 L53.2943662,42.5997465 Z M8.65690141,50.5941127 C7.54056338,49.4752394 7.54394366,47.6667887 8.66197183,46.5512958 C9.77915493,45.4366479 11.5892958,45.438338 12.7047887,46.5563662 C13.8185915,47.6752394 13.8169014,49.4836901 12.6980282,50.5991831 C12.1402817,51.1552394 11.4109859,51.4341127 10.68,51.4341127 C9.94732394,51.4341127 9.21380282,51.1535493 8.65690141,50.5941127 L8.65690141,50.5941127 Z M46.5405634,50.6549577 C45.4250704,49.5360845 45.4284507,47.7267887 46.5473239,46.6129859 C47.6661972,45.4991831 49.4746479,45.5034085 50.5884507,46.6197465 C51.7047887,47.7394648 51.6997183,49.5496056 50.5825352,50.6634085 C50.0239437,51.2177746 49.2946479,51.4966479 48.5653521,51.4966479 C47.8309859,51.4966479 47.0983099,51.2160845 46.5405634,50.6549577 L46.5405634,50.6549577 Z M18.2602817,57.0403099 C16.8033803,56.4318592 16.1138028,54.7586197 16.7205634,53.3017183 C17.328169,51.8448169 19.0014085,51.1552394 20.4591549,51.762 C21.9160563,52.3696056 22.6047887,54.0436901 21.9988732,55.5005915 C21.5416901,56.598338 20.4777465,57.2600282 19.3588732,57.2600282 C18.9912676,57.2600282 18.6211268,57.1890423 18.2602817,57.0403099 L18.2602817,57.0403099 Z M37.223662,55.5242535 C36.6211268,54.065662 37.3157746,52.3941127 38.7760563,51.7924225 C40.2346479,51.1898873 41.9061972,51.8845352 42.5078873,53.3448169 C43.1087324,54.8050986 42.4140845,56.4749577 40.955493,57.0766479 C40.5988732,57.2236901 40.2295775,57.2946761 39.8661972,57.2946761 C38.7430986,57.2946761 37.6783099,56.6279155 37.223662,55.5242535 L37.223662,55.5242535 Z M29.603662,59.3076338 C28.0259155,59.3059437 26.7490141,58.0239718 26.7507025,56.4462254 C26.7523944,54.8659437 28.0343662,53.5873521 29.6138028,53.5907257 C31.1923944,53.5949577 32.4684507,54.8743944 32.4676061,56.4546761 C32.4659155,58.0307324 31.1847887,59.3076338 29.6087324,59.3076338 L29.603662,59.3076338 Z" id="Fill-7"></path>
                </g>
            </g>
        </g>
    </g>
</svg>